# xmcd
#
# Track frame offsets:
#   150
#   11512
#   22482
#   36424
#   59557
#   71336
#   82126
#   96801
#   112113
#   124041
#   138790
#   167236
#   175643
#   187318
#   198339
#
# Disc length: 2713 seconds
#
# Revision: 0
# Processed by: cddbd v1.5.1PL2 Copyright (c) Steve Scherf et al.
# Submitted via: GXTranscoder 2.24.2978
#
DISCID=dc0a970f
DTITLE=Fats Domino - The Gold Collection
DYEAR=1900
DGENRE=Blues
TTITLE0=Ain't That Shame
TTITLE1=Blue Monday
TTITLE2=Blueberry Hill
TTITLE3=Domino Twist
TTITLE4=I Want To Walk You Home
TTITLE5=I'm Gonna Be A Wheel Someday
TTITLE6=I'm In The Mood For Love
TTITLE7=Jambalaya
TTITLE8=Let The Four Winds Blow
TTITLE9=Medley I'm In Love Again Honey Chile
TTITLE10=Medley So Long  Natural Born Lover  CC Rider
TTITLE11=Red Sails In The Sunset
TTITLE12=The Fat Man
TTITLE13=What A Price
TTITLE14=Whole Lotta Loving
EXTD=
EXTT0=
EXTT1=
EXTT2=
EXTT3=
EXTT4=
EXTT5=
EXTT6=
EXTT7=
EXTT8=
EXTT9=
EXTT10=
EXTT11=
EXTT12=
EXTT13=
EXTT14=
PLAYORDER=
